SCREEN ::
 
http://i.minus.com/ibnB36j55UmrlG.png
 
http://i.minus.com/iliE7XFXkxXGQ.png
 
http://i.minus.com/ikEYqcyZRNifM.png
 
http://i.minus.com/iCsLbCzKjGh5E.png
 
http://i.minus.com/ibrmuh8faxSNVy.png
 
http://i.minus.com/im1TSGU5t3uIY.png


General ::
Format                           : AVI
Format/Info                      : Audio Video Interleave
File size                        : 48.1 MiB
Duration                         : 2mn 59s
Overall bit rate                 : 2 245 Kbps


Video Info ::
ID                               : 0
Format                           : AVC
Format/Info                      : Advanced Video Codec
Format profile                   : High@L5.1
Format settings, CABAC           : Yes
Format settings, ReFrames        : 2 frames
Codec ID                         : H264
Duration                         : 10s 0ms
Bit rate                         : 1 913 Kbps
Width                            : 1 280 pixels
Height                           : 544 pixels
Display aspect ratio             : 2.35:1
Frame rate                       : 30.000 fps
Color space                      : YUV
Chroma subsampling               : 4:2:0
Bit depth                        : 8 bits
Scan type                        : Progressive
Bits/(Pixel*Frame)               : 0.092
Stream size                      : 41.0 MiB (85%)


Audio Info ::
ID                               : 1
Format                           : MPEG Audio
Format version                   : Version 1
Format profile                   : Layer 3
Codec ID                         : 55
Codec ID/Hint                    : MP3
Duration                         : 2mn 59s
Bit rate mode                    : Constant
Bit rate                         : 320 Kbps
Channel(s)                       : 2 channels
Sampling rate                    : 44.1 KHz
Compression mode                 : Lossy
Stream size                      : 6.86 MiB (14%)